<?xml version="1.0" standalone="no"?>
<!DOCTYPE svg PUBLIC "-//W3C//DTD SVG 20010904//EN"
 "http://www.w3.org/TR/2001/REC-SVG-20010904/DTD/svg10.dtd">
<svg version="1.0" xmlns="http://www.w3.org/2000/svg"
 width="18.000000pt" height="18.000000pt" viewBox="0 0 18.000000 18.000000"
 preserveAspectRatio="xMidYMid meet">
<metadata>
Created by potrace 1.15, written by Peter Selinger 2001-2017
</metadata>
<g transform="translate(0.000000,18.000000) scale(0.100000,-0.100000)"
fill="#000000" stroke="none">
<path d="M26 154 c-57 -58 -17 -154 64 -154 27 0 45 7 64 26 57 58 17 154 -64
154 -27 0 -45 -7 -64 -26z m121 -6 c51 -48 15 -138 -56 -138 -47 0 -81 32 -81
79 0 72 84 109 137 59z"/>
<path d="M42 137 c-30 -32 -28 -71 4 -96 15 -12 34 -21 44 -21 10 0 29 9 44
21 33 26 34 68 3 97 -30 28 -68 28 -95 -1z"/>
</g>
</svg>
